<svg xmlns="http://www.w3.org/2000/svg" viewBox="0 0 512 512">
  <defs>
    <linearGradient id="bgGrad" x1="0%" y1="0%" x2="100%" y2="100%">
      <stop offset="0%" style="stop-color:#3D5AFE"/>
      <stop offset="100%" style="stop-color:#0039CB"/>
    </linearGradient>
    <linearGradient id="swipeGlow" x1="0%" y1="0%" x2="100%" y2="0%">
      <stop offset="0%" style="stop-color:#8187FF;stop-opacity:0"/>
      <stop offset="50%" style="stop-color:#FFFFFF;stop-opacity:0.9"/>
      <stop offset="100%" style="stop-color:#8187FF;stop-opacity:0"/>
    </linearGradient>
    <linearGradient id="arrowGrad" x1="0%" y1="0%" x2="0%" y2="100%">
      <stop offset="0%" style="stop-color:#FFFFFF;stop-opacity:1"/>
      <stop offset="100%" style="stop-color:#FFFFFF;stop-opacity:0.6"/>
    </linearGradient>
    <clipPath id="roundedSquare">
      <rect x="0" y="0" width="512" height="512" rx="108" ry="108"/>
    </clipPath>
  </defs>
  <g clip-path="url(#roundedSquare)">
    <rect width="512" height="512" fill="url(#bgGrad)"/>
    <g opacity="0.06" stroke="#FFFFFF" stroke-width="1" fill="none">
      <line x1="0" y1="128" x2="512" y2="128"/><line x1="0" y1="256" x2="512" y2="256"/>
      <line x1="0" y1="384" x2="512" y2="384"/><line x1="128" y1="0" x2="128" y2="512"/>
      <line x1="256" y1="0" x2="256" y2="512"/><line x1="384" y1="0" x2="384" y2="512"/>
    </g>
    <path d="M 0,160 Q 50,256 0,352" fill="none" stroke="url(#swipeGlow)" stroke-width="6" stroke-linecap="round" opacity="0.5"/>
    <path d="M 512,160 Q 462,256 512,352" fill="none" stroke="url(#swipeGlow)" stroke-width="6" stroke-linecap="round" opacity="0.5"/>
    <path d="M 160,512 Q 256,462 352,512" fill="none" stroke="url(#swipeGlow)" stroke-width="6" stroke-linecap="round" opacity="0.5"/>
    <g transform="translate(256,256) scale(1.5) translate(-256,-256)">
      <path d="M 380,340 C 340,300 280,240 180,190" fill="none" stroke="#FFFFFF" stroke-width="16" stroke-linecap="round" opacity="0.25"/>
      <path d="M 360,320 C 320,280 260,225 170,180" fill="none" stroke="#FFFFFF" stroke-width="10" stroke-linecap="round" opacity="0.9"/>
      <g transform="translate(152,167) rotate(-145)" fill="url(#arrowGrad)">
        <path d="M 0,0 L -24,-14 L -18,0 L -24,14 Z" opacity="0.95"/>
      </g>
    </g>
    <g transform="translate(256,268) scale(1.5)">
      <rect x="-62" y="-90" width="124" height="180" rx="16" ry="16" fill="none" stroke="#FFFFFF" stroke-width="5" opacity="0.85"/>
      <rect x="-52" y="-76" width="104" height="148" rx="6" ry="6" fill="#FFFFFF" opacity="0.12"/>
      <g opacity="0.8"><line x1="-52" y1="-10" x2="-28" y2="-10" stroke="#FFFFFF" stroke-width="3.5" stroke-linecap="round"/><polyline points="-34,-18 -26,-10 -34,-2" fill="none" stroke="#FFFFFF" stroke-width="3.5" stroke-linecap="round" stroke-linejoin="round"/></g>
      <g opacity="0.8"><line x1="52" y1="10" x2="28" y2="10" stroke="#FFFFFF" stroke-width="3.5" stroke-linecap="round"/><polyline points="34,2 26,10 34,18" fill="none" stroke="#FFFFFF" stroke-width="3.5" stroke-linecap="round" stroke-linejoin="round"/></g>
      <g opacity="0.8"><line x1="0" y1="72" x2="0" y2="48" stroke="#FFFFFF" stroke-width="3.5" stroke-linecap="round"/><polyline points="-8,54 0,46 8,54" fill="none" stroke="#FFFFFF" stroke-width="3.5" stroke-linecap="round" stroke-linejoin="round"/></g>
      <rect x="-18" y="80" width="36" height="4" rx="2" ry="2" fill="#FFFFFF" opacity="0.6"/>
    </g>
    <g fill="#FFFFFF" opacity="0.15"><circle cx="60" cy="60" r="4"/><circle cx="82" cy="60" r="4"/><circle cx="104" cy="60" r="4"/><circle cx="60" cy="82" r="4"/><circle cx="82" cy="82" r="4"/><circle cx="60" cy="104" r="4"/></g>
    <g fill="#FFFFFF" opacity="0.15"><circle cx="452" cy="452" r="4"/><circle cx="430" cy="452" r="4"/><circle cx="408" cy="452" r="4"/><circle cx="452" cy="430" r="4"/><circle cx="430" cy="430" r="4"/><circle cx="452" cy="408" r="4"/></g>
  </g>
</svg>
